<?xml version="1.0" encoding="UTF-8"?><svg id="_レイヤー_2" xmlns="http://www.w3.org/2000/svg" viewBox="0 0 45.35 45.35"><defs><style>.cls-1{stroke-width:0px;}.cls-1,.cls-2{fill:none;}.cls-2{stroke:#64bc8f;stroke-linecap:round;stroke-linejoin:round;stroke-width:3.2px;}</style></defs><g id="_レイヤー_1-2"><rect class="cls-1" width="45.35" height="45.35"/><rect class="cls-2" x="6.38" y="2.83" width="19.84" height="19.84" rx="2.83" ry="2.83"/><path class="cls-2" d="M36.14,9.92h-9.92v9.92c0,1.57-1.27,2.83-2.83,2.83h-4.25v4.25c0,1.57,1.27,2.83,2.83,2.83h14.17c1.57,0,2.83-1.27,2.83-2.83v-14.17c0-1.57-1.27-2.83-2.83-2.83Z"/><path class="cls-2" d="M21.97,29.76c-1.57,0-2.83-1.27-2.83-2.83v-4.25h-4.25c-1.57,0-2.83,1.27-2.83,2.83v14.17c0,1.57,1.27,2.83,2.83,2.83h14.17c1.57,0,2.83-1.27,2.83-2.83v-9.92h-9.92Z"/><path class="cls-2" d="M16.3,12.76c-1.96,0-3.54-1.59-3.54-3.54s1.59-3.54,3.54-3.54,3.54,1.59,3.54,3.54"/><path class="cls-2" d="M16.3,12.76c1.96,0,3.54,1.59,3.54,3.54s-1.59,3.54-3.54,3.54-3.54-1.59-3.54-3.54"/><polyline class="cls-2" points="26.22 17.75 28.92 25.17 29.04 25.17 32.92 14.52"/><path class="cls-2" d="M19.19,28.48c-1.32.89-2.19,2.4-2.19,4.11,0,2.74,2.22,4.96,4.96,4.96s4.96-2.22,4.96-4.96c0-1.02-.31-1.96-.83-2.75"/></g></svg>