<?xml version="1.0" encoding="UTF-8"?><svg id="_レイヤー_2" xmlns="http://www.w3.org/2000/svg" viewBox="0 0 85.67 45.35"><defs><style>.cls-1{fill:none;stroke:#64bc8f;stroke-linecap:round;stroke-linejoin:round;stroke-width:3.2px;}.cls-2{fill:#54a379;}.cls-2,.cls-3{stroke-width:0px;}.cls-3{fill:#f5fff9;}</style></defs><g id="_レイヤー_1-2"><path class="cls-3" d="M12.55,1.6h60.58c6.04,0,10.95,4.91,10.95,10.95v20.26c0,6.04-4.91,10.95-10.95,10.95H12.55c-6.04,0-10.95-4.9-10.95-10.95V12.55C1.6,6.51,6.51,1.6,12.55,1.6Z"/><path class="cls-2" d="M73.12,3.2c5.15,0,9.35,4.19,9.35,9.35v20.26c0,5.15-4.19,9.35-9.35,9.35H12.55c-5.15,0-9.35-4.19-9.35-9.35V12.55C3.2,7.39,7.39,3.2,12.55,3.2h60.58M73.12,0H12.55C5.62,0,0,5.62,0,12.55v20.26c0,6.93,5.62,12.55,12.55,12.55h60.58c6.93,0,12.55-5.62,12.55-12.55V12.55c0-6.93-5.62-12.55-12.55-12.55h0Z"/><polyline class="cls-1" points="60.42 37.69 49.08 37.69 49.08 9.34 60.42 9.34"/><line class="cls-1" x1="77.43" y1="23.51" x2="54.75" y2="23.51"/><line class="cls-1" x1="54.75" y1="23.51" x2="62.78" y2="15.49"/><line class="cls-1" x1="62.78" y1="15.49" x2="62.78" y2="23.51"/><path class="cls-2" d="M11.25,9.14l-.08,10.93c0,1.03,1.59,1.03,1.6,0l.08-10.93c0-1.03-1.59-1.03-1.6,0h0Z"/><path class="cls-2" d="M13.23,10.18c3.06-.48,6.17-.61,9.27-.44l-.8-.8c-.04,3.33-.08,6.65-.12,9.98l.8-.8c-3.1-.08-6.21-.17-9.31-.25-1.03-.03-1.03,1.57,0,1.6,3.1.08,6.21.17,9.31.25.44.01.79-.38.8-.8.04-3.33.08-6.65.12-9.98,0-.45-.37-.78-.8-.8-3.24-.18-6.48,0-9.69.49-.43.07-.66.6-.56.98.13.46.56.63.98.56h0Z"/><path class="cls-2" d="M25.2,8.81c.1,1.78-.18,3.57-.9,5.21-.17.4-.12.86.29,1.09.34.2.92.11,1.09-.29.84-1.89,1.24-3.94,1.12-6.01-.02-.43-.35-.8-.8-.8-.41,0-.83.37-.8.8h0Z"/><path class="cls-2" d="M26.71,9.81l4.83-.2c.38-.02.77-.05,1.15-.05,0,0,.3.05.2-.04.04.03.05.34.05.34.06.71.05,1.44-.02,2.15-.13,1.4-.55,2.8-1.18,4.05-.49.96-1.34,2.5-2.66,2.22-1-.22-1.43,1.33-.43,1.54,1.91.41,3.34-.94,4.21-2.48s1.43-3.35,1.64-5.16c.1-.88.11-1.78,0-2.66-.11-.95-.71-1.53-1.67-1.58s-1.95.07-2.91.11l-3.22.13c-1.03.04-1.03,1.64,0,1.6h0Z"/><path class="cls-2" d="M36.41,11.56c1.03,0,1.03-1.6,0-1.6s-1.03,1.6,0,1.6h0Z"/><path class="cls-2" d="M36.17,14.1c1.03,0,1.03-1.6,0-1.6s-1.03,1.6,0,1.6h0Z"/><path class="cls-2" d="M21.89,24.22c-2.11,2.79-5.47,4.59-8.95,4.84-1.02.07-1.03,1.67,0,1.6,4.1-.29,7.86-2.36,10.33-5.63.26-.34.05-.89-.29-1.09-.41-.24-.83-.06-1.09.29h0Z"/><path class="cls-2" d="M26.22,27.79h2.64c.42,0,.82-.37.8-.8s-.35-.8-.8-.8h-2.64c-.42,0-.82.37-.8.8s.35.8.8.8h0Z"/><path class="cls-2" d="M24.95,35.48c2.75-.04,5.65-.56,7.68-2.56s2.17-4.91,2.1-7.62c-.03-1.03-1.63-1.03-1.6,0,.06,2.26.11,4.78-1.63,6.49s-4.24,2.06-6.55,2.09c-1.03.01-1.03,1.61,0,1.6h0Z"/><path class="cls-2" d="M16.63,30.03v5.01c0,.42.37.82.8.8s.8-.35.8-.8v-5.01c0-.42-.37-.82-.8-.8s-.8.35-.8.8h0Z"/></g></svg>