<?xml version="1.0" encoding="UTF-8"?><svg id="_レイヤー_2" xmlns="http://www.w3.org/2000/svg" viewBox="0 0 57.7 32.9"><defs><style>.cls-1{fill:#54a379;}.cls-1,.cls-2,.cls-3,.cls-4{stroke-width:0px;}.cls-2{fill:#3d845b;}.cls-3{fill:#64bc8f;}.cls-4{fill:#fff;}</style></defs><g id="_レイヤー_1-2"><rect class="cls-3" x=".5" y="4.84" width="56.7" height="24.99" rx="3.83" ry="3.83"/><path class="cls-1" d="m53.38,5.34c1.84,0,3.33,1.49,3.33,3.33v17.33c0,1.84-1.49,3.33-3.33,3.33H4.33c-1.84,0-3.33-1.49-3.33-3.33V8.67c0-1.84,1.49-3.33,3.33-3.33h49.05m0-1H4.33C1.94,4.34,0,6.28,0,8.67v17.33c0,2.39,1.94,4.33,4.33,4.33h49.05c2.39,0,4.33-1.94,4.33-4.33V8.67c0-2.39-1.94-4.33-4.33-4.33h0Z"/><polygon class="cls-1" points="15.39 9.35 24.74 18.7 25.62 26.26 15.01 25.82 15.39 9.35"/><polygon class="cls-1" points="13.61 14.89 14.59 15.87 14.59 16.87 13.61 15.89 13.61 14.89"/><polygon class="cls-1" points="5.97 9.35 11.61 14.99 5.81 14.99 5.97 9.35"/><polygon class="cls-2" points="14.72 23.03 12.33 20.64 9.95 19.86 5.97 15.89 13.61 15.89 14.83 17.12 14.72 23.03"/><polygon class="cls-1" points="9.8 29.71 5.97 25.89 5.97 15.89 9.82 19.73 12.33 20.64 14.72 23.03 14.72 29.42 9.54 29.45 9.8 29.71"/><polygon class="cls-2" points="14.77 29.42 8.64 23.28 12.15 23.28 18.59 29.72 14.77 29.42"/><polygon class="cls-2" points="9.8 29.71 5.97 25.89 4.97 25.89 8.87 29.78 9.8 29.71"/><polyline class="cls-1" points="22.6 24.93 17.94 24.93 17.08 24.06 17.08 19.56 18.93 18.55 20.65 18.8 21.76 20.27 22.25 23.6"/><path class="cls-1" d="m21.45,18.82l2.16,2.16,2.67,4.04-3.07.37c-.43-.32-.92-.79-1.32-1.44-1.35-2.18-.6-4.64-.44-5.13Z"/><path class="cls-2" d="m17.75,11.5c.98-.07,1.96-.04,2.94.07l-.06-.23c-.54.32-1.09.62-1.62.96-.41.26-.79.63-.79,1.15s.4.78.84.87c.59.13,1.22.13,1.81.1.16-.01.16-.26,0-.25-.54.03-1.08.02-1.61-.06-.41-.07-.86-.26-.78-.76.07-.47.51-.74.88-.96.47-.28.93-.55,1.4-.82.12-.07.05-.22-.06-.23-.97-.11-1.96-.14-2.94-.07-.16.01-.16.26,0,.25h0Z"/><path class="cls-2" d="m19.91,13.22v.27s.01.07.04.09.06.04.09.04.07-.01.09-.04.04-.05.04-.09v-.27s-.01-.07-.04-.09-.06-.04-.09-.04-.07.01-.09.04-.04.05-.04.09h0Z"/><path class="cls-2" d="m20.57,13.16v.35c.01.07.07.13.13.12s.13-.05.12-.12v-.35c-.01-.07-.07-.13-.13-.12s-.13.05-.12.12h0Z"/><path class="cls-2" d="m21.42,11.41h3c-.03-.07-.06-.14-.09-.22-.82.68-1.76,1.2-2.76,1.55l.1.23c.61-.32,1.29-.49,1.97-.47.28,0,.66,0,.85.26s.09.6-.06.83c-.36.58-1.11.72-1.74.72-.35,0-.72-.03-1.06-.15-.23-.08-.12-.24.03-.32.13-.08.27-.13.41-.17.62-.18,1.32-.03,1.81.39.12.1.3-.07.18-.18-.55-.47-1.31-.64-2.01-.46-.29.07-.74.23-.81.56-.08.42.48.48.77.53.79.13,1.78.1,2.4-.49.48-.46.66-1.41-.12-1.68-.42-.14-.93-.1-1.37-.04-.48.07-.95.23-1.38.46-.12.07-.04.28.1.23,1.05-.36,2.02-.91,2.87-1.61.09-.07.01-.21-.09-.21h-3c-.16,0-.16.25,0,.25h0Z"/><path class="cls-2" d="m25.8,11.29c-.16,1.03,0,2.08.48,3,.07.14.29.02.22-.13-.44-.86-.61-1.85-.46-2.81.02-.16-.22-.23-.24-.07h0Z"/><path class="cls-2" d="m26.78,11.22c0,.66-.15,1.32-.46,1.9-.13.26-.32.64-.6.77-.37.17-.41-.27-.4-.52.01-.33.03-.71.27-.96.22-.24.6-.26.9-.29.62-.05,1.38.04,1.62.71.22.63-.23,1.31-.91,1.34-.16,0-.16.26,0,.25.7-.04,1.28-.65,1.21-1.37-.04-.34-.2-.67-.48-.88-.33-.25-.75-.33-1.15-.32s-.86.02-1.2.24-.46.6-.5.97c-.03.31-.09.76.16.99.3.27.7.04.91-.22.58-.73.87-1.69.87-2.61,0-.16-.25-.16-.25,0h0Z"/><path class="cls-2" d="m28.79,13.14l3-.13c.16,0,.16-.26,0-.25l-3,.13c-.16,0-.16.26,0,.25h0Z"/><path class="cls-2" d="m32.14,11.8l.67.98c.04.06.11.08.17.04.06-.03.08-.12.04-.17l-.67-.98c-.04-.06-.11-.08-.17-.04-.06.03-.08.12-.04.17h0Z"/><path class="cls-2" d="m34.1,11.68c-.39.22-.75.51-1.04.85s-.58.74-.68,1.17c-.05.22-.03.45.12.63.14.16.35.24.55.26.28.03.56-.03.84-.07.25-.03.52-.03.76-.11.23-.07.39-.25.38-.5s-.21-.4-.44-.42c-.16-.02-.16.23,0,.25.11.01.19.1.19.21,0,.14-.12.2-.24.23-.24.06-.51.07-.75.1-.36.05-1.22.22-1.19-.4.01-.23.14-.45.26-.65.11-.18.23-.36.37-.52.28-.33.62-.61,1.01-.82.14-.08.01-.29-.13-.22h0Z"/><path class="cls-2" d="m18.07,18.93c.28-.02,1.51-.01,1.67,0,.16.01.24.03.32.06.17.06.3.17.35.21.01.01.06.06.12.11,0,0,.04.04.08.07.08.07,1.91,2.32,4.38,5.43h-1c-2.31-1.96-3.62-3.92-5.93-5.88Z"/><polyline class="cls-2" points="20.61 19.38 23.41 22.19 24.18 23.36 25.65 24.83 24.99 24.83"/><polygon class="cls-2" points="16.99 24.85 16.14 24 17.14 24 17.94 24.81 16.99 24.85"/><line class="cls-2" x1="19.07" y1="18.93" x2="25.62" y2="25.48"/><polygon class="cls-2" points="22.6 24.93 21.67 24 22.67 24 23.63 24.95 22.6 24.93"/><path class="cls-1" d="m32.12,24v-.2l-2.02-2.02c0-.36,0-.72,0-1.08l-1.63-1.63-3.33-.07-1.27,1.97,1.02,2.39,2.32-.03-.92.92-2.11-.89,1.48,1.48h.63v-.02h6.65l-.81-.81Z"/><polygon class="cls-2" points="27.86 24.8 24.77 21.71 28.29 21.71 31.35 24.77 27.86 24.8"/><polygon class="cls-1" points="42.28 25 39.03 21.75 38.47 21.75 35.13 18.41 32.98 19.11 32.74 20.66 33.99 21.74 33.09 21.74 33.09 24 32.09 24 32.92 24.83 37.6 24.86 37.77 25 42.28 25"/><polygon class="cls-2" points="32.92 24.83 32.09 24 33.09 24 33.98 24.89 32.92 24.83"/><polygon class="cls-2" points="38.28 24.89 35.13 21.74 33.09 21.74 36.21 24.85 38.28 24.89"/><polyline class="cls-2" points="35.13 19.41 35.13 19.41 33.09 19.41 34.46 20.77 35.13 20.77 39.21 24.85"/><polygon class="cls-2" points="30.06 21.74 32.12 23.8 32.12 21.74 30.06 21.74"/><polygon class="cls-2" points="30.06 19.41 31.41 20.75 32.09 20.75 32.09 19.41 30.06 19.41"/><path class="cls-1" d="m50.65,11.69c-3.12-3.12-8.17-3.12-11.29,0-3.12,3.12-3.12,8.17,0,11.29l2.77,2.77-27.5-.09,3.67,3.67h27.41s7.66,0,7.66,0c1.84,0,3.33-1.49,3.33-3.33v-8.26c-2.02-2.02-4.03-4.03-6.05-6.05Z"/><rect class="cls-4" x="4.97" y="9.35" width="1" height="16.53"/><polygon class="cls-2" points="45.01 25.82 48.64 29.45 18.31 29.45 14.58 25.72 45.01 25.82"/><rect class="cls-4" x="5.47" y="14.89" width="8.13" height="1"/><path class="cls-4" d="m10.18,25.82c-.81,0-1.57-.32-2.14-.89s-.89-1.33-.89-2.14.32-1.57.89-2.14c1.18-1.18,3.1-1.18,4.29,0l-.71.71c-.79-.79-2.08-.79-2.87,0-.38.38-.6.89-.6,1.44s.21,1.05.6,1.44c.77.77,2.1.77,2.87,0,.26-.26.44-.59.53-.94h-3.52v-1h4.08c.28,0,.5.22.5.5,0,.81-.32,1.57-.89,2.14s-1.33.89-2.14.89Z"/><path class="cls-4" d="m22.67,24h-1v-1.21c0-2.28-1.02-3.86-1.93-3.86h-.67c-.91,0-1.93,1.59-1.93,3.86v1.21h-1v-1.21c0-2.73,1.29-4.86,2.93-4.86h.67c1.64,0,2.93,2.14,2.93,4.86v1.21Z"/><path class="cls-4" d="m26.32,24.25c-.81,0-1.57-.32-2.14-.89-1.05-1.04-1.05-2.09-.87-2.77.21-.8.72-1.36.87-1.51,1.18-1.18,3.11-1.18,4.29,0l-.71.71c-.79-.79-2.08-.79-2.87,0-.05.05-.46.47-.61,1.06-.17.64.03,1.24.61,1.82.77.77,2.11.77,2.87,0,.26-.26.45-.59.53-.94h-3.52v-1h4.08c.28,0,.5.22.5.5,0,.81-.32,1.57-.89,2.14-.57.57-1.33.89-2.14.89Z"/><rect class="cls-4" x="30.06" y="18.41" width="5.06" height="1"/><rect class="cls-4" x="30.06" y="20.74" width="5.06" height="1"/><rect class="cls-4" x="32.09" y="18.93" width="1" height="5.06"/><path class="cls-4" d="m45.01,25.81c-2.17,0-4.34-.83-6-2.48-3.31-3.31-3.31-8.69,0-11.99s8.69-3.31,11.99,0,3.31,8.69,0,11.99c-1.65,1.65-3.82,2.48-6,2.48Zm0-15.95c-1.92,0-3.83.73-5.29,2.19-2.92,2.92-2.92,7.66,0,10.58s7.66,2.92,10.58,0,2.92-7.66,0-10.58c-1.46-1.46-3.37-2.19-5.29-2.19Z"/><polyline class="cls-2" points="35.13 19.41 40.56 24.84 39.21 24.84"/><path class="cls-4" d="m45.01,25.82H15.01c-.27,0-.5-.22-.5-.5l-.11-15.96h1s.11,15.46.11,15.46h29.5v1Z"/><path class="cls-1" d="m53.38,5.34c1.84,0,3.33,1.49,3.33,3.33v17.33c0,1.84-1.49,3.33-3.33,3.33H4.33c-1.84,0-3.33-1.49-3.33-3.33V8.67c0-1.84,1.49-3.33,3.33-3.33h49.05m0-1H4.33C1.94,4.34,0,6.28,0,8.67v17.33c0,2.39,1.94,4.33,4.33,4.33h49.05c2.39,0,4.33-1.94,4.33-4.33V8.67c0-2.39-1.94-4.33-4.33-4.33h0Z"/><path class="cls-4" d="m17.61,11.33c.98-.07,1.96-.04,2.94.07l-.09-.35c-.54.32-1.09.62-1.62.96-.42.27-.82.66-.82,1.2s.41.83.89.93c.59.13,1.23.14,1.83.1.24-.02.24-.39,0-.38-.53.03-1.07.03-1.6-.06-.37-.06-.81-.22-.74-.68s.49-.71.85-.92c.47-.28.93-.55,1.4-.82.17-.1.08-.33-.09-.35-.97-.11-1.96-.14-2.94-.07-.24.02-.24.39,0,.38h0Z"/><path class="cls-4" d="m19.71,12.99v.27s.02.1.05.13.09.06.13.05.1-.02.13-.05.05-.08.05-.13v-.27s-.02-.1-.05-.13-.09-.06-.13-.05-.1.02-.13.05-.05.08-.05.13h0Z"/><path class="cls-4" d="m20.37,12.93v.35s.03.1.06.13c.03.03.09.06.13.05s.1-.02.13-.05.06-.08.05-.13v-.35s-.03-.1-.06-.13c-.03-.03-.09-.06-.13-.05s-.1.02-.13.05-.06.08-.05.13h0Z"/><path class="cls-4" d="m21.28,11.24h3c-.04-.11-.09-.22-.13-.32-.81.67-1.74,1.19-2.73,1.53l.14.34c.6-.32,1.27-.48,1.94-.46.25,0,.63,0,.8.23s.07.55-.06.76c-.35.56-1.08.69-1.69.69-.34,0-.71-.03-1.04-.14-.05-.02-.1-.03-.09-.09.01-.05.1-.1.14-.12.12-.07.26-.13.39-.17.6-.17,1.27-.04,1.74.37.18.16.45-.11.27-.27-.56-.48-1.35-.66-2.07-.48-.31.08-.77.25-.85.61-.1.46.49.55.81.6.82.13,1.83.1,2.46-.51.52-.5.68-1.5-.15-1.78-.43-.15-.96-.1-1.4-.04-.49.07-.96.23-1.4.47-.19.1-.06.41.14.34,1.06-.37,2.04-.92,2.9-1.63.13-.11.02-.32-.13-.32h-3c-.24,0-.24.38,0,.38h0Z"/><path class="cls-4" d="m25.6,11.04c-.16,1.05,0,2.11.49,3.05.11.21.43.03.32-.19-.44-.84-.6-1.82-.45-2.76.04-.24-.32-.34-.36-.1h0Z"/><path class="cls-4" d="m26.58,10.99c0,.65-.15,1.3-.45,1.87-.07.13-.15.26-.23.39s-.19.29-.34.35c-.32.14-.32-.26-.31-.46.01-.31.03-.68.25-.92.21-.23.57-.25.86-.27.59-.05,1.33.02,1.56.67.21.59-.21,1.23-.85,1.26-.24.01-.24.39,0,.38.74-.04,1.35-.68,1.27-1.43-.04-.36-.21-.7-.5-.92-.34-.26-.77-.35-1.2-.34-.4,0-.89.03-1.23.24s-.49.63-.53,1.02c-.03.33-.09.79.18,1.04.32.3.77.07,1-.22.59-.74.89-1.72.89-2.66,0-.24-.38-.24-.38,0h0Z"/><path class="cls-4" d="m28.65,12.98l3-.13c.24-.01.24-.39,0-.38l-3,.13c-.24.01-.24.39,0,.38h0Z"/><path class="cls-4" d="m31.94,11.6l.67.98c.06.08.17.12.26.07.08-.05.13-.17.07-.26l-.67-.98c-.06-.08-.17-.12-.26-.07-.08.05-.13.17-.07.26h0Z"/><path class="cls-4" d="m33.92,11.4c-.4.22-.76.51-1.06.86s-.6.76-.7,1.2c-.06.24-.03.5.14.69.15.17.37.26.6.28.28.03.56-.03.84-.07.25-.03.53-.04.77-.11s.44-.29.42-.56-.24-.45-.5-.49c-.1-.01-.19.09-.19.19,0,.11.09.18.19.19.07,0,.13.08.13.15,0,.11-.1.15-.19.17-.24.06-.49.07-.74.1-.32.04-1.15.22-1.12-.33.01-.22.14-.43.25-.62s.22-.35.36-.51c.28-.33.62-.6.99-.81.21-.12.02-.44-.19-.32h0Z"/><path class="cls-4" d="m18.27,26.43c-.05.67-.06,1.34-.02,2.02h.25c-.01-.2,0-.41.03-.61.02-.12.05-.45.23-.45s.2.29.21.42c.01.22,0,.44-.01.67-.01.16.24.16.25,0,.03-.28.03-.58,0-.86-.03-.23-.18-.48-.44-.48s-.39.25-.44.47c-.06.28-.08.56-.07.85,0,.16.26.16.25,0-.04-.67-.03-1.34.02-2.02.01-.16-.24-.16-.25,0h0Z"/><path class="cls-4" d="m19.65,27.42h.75c.07-.01.13-.07.12-.14s-.05-.13-.12-.12h-.75c-.07.01-.13.07-.12.14s.05.13.12.12h0Z"/><path class="cls-4" d="m19.92,26.88c-.01.36-.02.72,0,1.07,0,.15.03.31.12.43s.24.18.39.15.09-.28-.07-.24c-.09.02-.15-.09-.17-.16-.03-.12-.02-.26-.03-.39,0-.29,0-.58,0-.87,0-.16-.24-.16-.25,0h0Z"/><path class="cls-4" d="m20.98,27.39h.77c.07,0,.13-.06.12-.13s-.05-.13-.12-.12h-.77c-.07,0-.13.06-.12.13s.05.13.12.12h0Z"/><path class="cls-4" d="m21.22,26.93c-.02.32-.02.63,0,.95.01.14.02.29.09.41s.2.2.34.19c.16-.01.16-.26,0-.25-.1,0-.14-.08-.16-.16-.03-.12-.03-.24-.03-.36-.01-.26-.01-.52,0-.78,0-.16-.24-.16-.25,0h0Z"/><path class="cls-4" d="m22.2,27.26v1.56c0,.16.25.16.25,0v-1.56c0-.16-.25-.16-.25,0h0Z"/><path class="cls-4" d="m22.44,27.35s.03,0,.04,0c0,0,.02,0,.03,0,0,0,.02,0,0,0s0,0,0,0c0,0,.01,0,.02,0,.02,0,.03,0,.05,0,.03,0,.06,0,.09,0,.02,0,.03,0,.05,0,0,0,.01,0,.02,0,.02,0-.01,0,0,0,.03,0,.05.01.08.02.01,0,.03.01,0,0,.01,0,.02,0,.03.02s.02.01.03.02c0,0,.02.02,0,0,.02.02.03.03.05.05-.01-.01,0,0,0,0s.01.02.02.03c0,0,0,0,0,.01,0,0,0-.02,0,0,0,.01,0,.02,0,.03,0,.02,0,0,0,0,0,0,0,.01,0,.01,0,.01,0,.02,0,.03,0,.01,0,0,0,0,0,0,0,0,0,.01,0,0,0,.01,0,.02,0,0,0,.02,0,0s0,.01,0,.02c0,.01-.01.02-.02.03.01-.02,0,0,0,0,0,0-.02.02-.03.02,0,0,0,0-.01,0,.02-.02,0,0,0,0,0,0-.02.01-.03.02s-.02,0-.03.01c0,0-.02,0,0,0,0,0-.01,0-.02,0-.01,0-.03,0-.04.01,0,0-.01,0-.02,0,0,0-.03,0-.02,0,.01,0,0,0,0,0,0,0-.02,0-.03,0-.01,0-.03,0-.04,0-.07,0-.13,0-.2-.01s-.13.06-.12.12c0,.07.06.12.12.12.14.02.28.03.42-.02.12-.04.24-.12.3-.24.06-.12.06-.26,0-.38-.06-.11-.18-.19-.3-.22-.16-.05-.34-.02-.51,0-.06.01-.11.09-.09.15.02.07.08.1.15.09h0Z"/><path class="cls-4" d="m24.42,27.2c-.24-.04-.51-.06-.75,0-.12.03-.21.1-.25.22-.04.1-.02.22.04.31.13.22.38.24.61.3.08.02.18.06.22.13.03.06.01.14-.03.19-.16.19-.48.05-.65-.03-.06-.03-.13-.02-.17.04-.03.05-.02.14.04.17.22.11.46.2.71.14.21-.06.39-.25.37-.48-.02-.25-.25-.37-.47-.42-.11-.02-.23-.04-.32-.1-.06-.04-.12-.11-.09-.18.03-.08.2-.07.27-.08.15,0,.29,0,.44.02.07.01.13-.02.15-.09.02-.06-.02-.14-.09-.15h0Z"/><path class="cls-4" d="m24.91,27.38c.16,0,.16-.25,0-.25s-.16.25,0,.25h0Z"/><path class="cls-4" d="m24.96,28.6c.16,0,.16-.25,0-.25s-.16.25,0,.25h0Z"/><path class="cls-4" d="m25.61,28.5c.26-.65.54-1.3.86-1.92.07-.14-.14-.27-.22-.13-.32.65-.62,1.31-.88,1.98-.06.15.18.21.24.07h0Z"/><path class="cls-4" d="m27.88,26.41l-.92,1.91c-.07.14.15.27.22.13l.92-1.91c.07-.14-.15-.27-.22-.13h0Z"/><path class="cls-4" d="m29.15,26.48v1.92c0,.16.25.16.25,0v-1.92c0-.16-.25-.16-.25,0h0Z"/><path class="cls-4" d="m29.19,27.15c-.17-.01-.34-.02-.5.05-.17.07-.29.21-.35.38-.11.32,0,.72.3.9.16.1.37.13.55.07.15-.05.09-.29-.07-.24-.13.04-.28.02-.39-.07-.12-.09-.18-.25-.18-.4s.05-.3.17-.38c.14-.08.31-.07.46-.06.07,0,.12-.06.12-.12,0-.07-.06-.12-.12-.12h0Z"/><path class="cls-4" d="m29.89,27.95c.16,0,.31,0,.47,0,.14,0,.26-.06.29-.21.05-.25-.03-.55-.3-.63-.25-.07-.5.09-.6.32-.11.25-.07.58.05.83.07.14.19.24.34.29.17.05.34.02.51,0,.07-.01.1-.09.09-.15-.02-.07-.09-.1-.15-.09-.17.03-.39.06-.51-.09-.05-.07-.08-.16-.1-.24-.02-.1-.03-.2-.02-.3.02-.14.11-.31.26-.32.06,0,.12,0,.16.05.05.06.05.15.05.23,0,.03,0,.06,0,.08,0-.01.03,0,0,0,0,0-.01,0-.02,0-.03,0-.06,0-.09,0h-.4c-.16,0-.16.25,0,.25h0Z"/><path class="cls-4" d="m30.97,26.48v2.01c0,.16.24.16.24,0v-2.01c0-.16-.24-.16-.24,0h0Z"/><path class="cls-4" d="m31.53,27.28l-.04,1.18c0,.14.22.17.25.03l.11-.67c.02-.1.02-.21.06-.3.02-.06.06-.11.12-.12.01,0,.02,0,.04.01.02.02.02.05.03.07.02.09,0,.2,0,.29,0,.22-.02.45-.04.67h.25c0-.22,0-.44.01-.66,0-.11,0-.37.18-.36.17.01.2.25.2.39,0,.22-.02.44-.03.65,0,.16.24.16.25,0,0-.21.02-.41.03-.62,0-.19-.02-.39-.16-.53-.13-.14-.35-.18-.5-.07s-.2.31-.21.5c-.02.23-.02.47-.02.7,0,.07.06.12.12.12.07,0,.12-.06.12-.12.03-.21.04-.41.04-.62,0-.17.03-.39-.07-.54-.11-.16-.32-.17-.47-.06s-.18.32-.21.49l-.11.71.25.03.04-1.18c0-.16-.24-.16-.25,0h0Z"/><path class="cls-4" d="m33.39,28h.46c.14,0,.3-.01.38-.15.07-.12.05-.27,0-.39s-.13-.24-.25-.31-.27-.08-.41-.02c-.12.06-.2.17-.24.3-.1.26-.09.57.05.81.15.27.49.43.78.31.06-.02.11-.08.09-.15-.02-.06-.09-.11-.15-.09-.17.07-.35,0-.46-.13s-.14-.34-.11-.52c.03-.14.08-.34.26-.31.08.02.14.07.18.14.03.06.07.15.05.22,0,.03-.03.03-.06.03-.06,0-.12,0-.18,0h-.41c-.16,0-.16.26,0,.26h0Z"/><path class="cls-4" d="m34.59,27.36l.87.03c.07,0,.12-.06.12-.12,0-.07-.06-.12-.12-.12l-.87-.03c-.07,0-.12.06-.12.12,0,.07.06.12.12.12h0Z"/><path class="cls-4" d="m34.94,26.86c-.02.37-.04.75-.03,1.12,0,.16.04.33.14.45s.27.18.43.14.09-.29-.07-.24c-.11.03-.2-.07-.23-.17-.04-.12-.03-.26-.03-.39,0-.3.01-.61.03-.91,0-.16-.24-.16-.25,0h0Z"/><path class="cls-4" d="m36.36,27.12c-.29-.03-.52.22-.59.48s-.03.57.15.79.5.29.74.15c.27-.16.3-.46.26-.74s-.18-.56-.43-.72c-.13-.09-.26.13-.13.22.14.1.23.26.28.42s.09.41-.03.55-.32.13-.45.02c-.15-.12-.18-.33-.16-.51.02-.2.14-.41.37-.39.07,0,.12-.06.12-.12,0-.07-.06-.12-.12-.12h0Z"/><path class="cls-4" d="m37.25,28.54c.16,0,.16-.25,0-.25s-.16.25,0,.25h0Z"/><path class="cls-4" d="m38.6,27.12c-.18,0-.37,0-.54.06s-.3.2-.37.37c-.14.33.01.74.34.89.2.09.42.09.62,0,.06-.03.08-.12.04-.17-.04-.06-.11-.07-.17-.04-.14.06-.33.04-.45-.05-.12-.08-.19-.23-.18-.37,0-.13.08-.27.2-.35.15-.1.35-.09.52-.08.16,0,.16-.24,0-.25h0Z"/><path class="cls-4" d="m39.5,27.09c-.24.08-.44.26-.52.51-.09.26-.02.55.15.75s.48.28.73.15c.11-.06.2-.16.26-.28.06-.14.06-.29.03-.43-.05-.28-.2-.55-.45-.71-.14-.09-.26.13-.13.22.15.1.25.26.3.42s.08.38-.07.52c-.13.11-.33.1-.45-.02-.13-.12-.19-.31-.15-.49.04-.19.18-.34.36-.4.15-.05.09-.29-.07-.24h0Z"/><path class="cls-4" d="m40.34,27.29c-.04.39-.04.78-.02,1.17,0,.16.24.16.25,0,0-.21.03-.42.07-.63.02-.1.04-.21.07-.31.01-.05.04-.14.1-.15.07,0,.1.08.12.13.02.09.03.19.03.28.01.21,0,.43-.03.64l.25.03c-.02-.24-.02-.49,0-.73,0-.12,0-.41.19-.36.17.05.19.28.2.43.01.24,0,.48-.05.71-.01.07.02.13.09.15.06.02.14-.02.15-.09.05-.23.07-.46.06-.69,0-.19-.02-.41-.13-.57s-.34-.26-.53-.16-.22.32-.23.51c-.02.27-.02.53,0,.8,0,.06.04.12.11.12.06,0,.13-.03.14-.09.03-.21.05-.43.04-.64,0-.18,0-.41-.11-.56-.11-.17-.34-.22-.5-.08-.14.13-.17.36-.2.53-.05.24-.08.48-.09.72h.25c-.02-.39-.01-.78.02-1.17,0-.07-.06-.12-.12-.12-.07,0-.12.06-.12.12h0Z"/></g></svg>