<?xml version="1.0" encoding="UTF-8"?><svg id="_レイヤー_2" xmlns="http://www.w3.org/2000/svg" viewBox="0 0 96.38 51.02"><defs><style>.cls-1{fill:#64bc8f;}.cls-1,.cls-2{stroke:#64bc8f;stroke-linecap:round;stroke-linejoin:round;stroke-width:3.2px;}.cls-2{fill:none;}.cls-3{fill:#54a379;}.cls-3,.cls-4{stroke-width:0px;}.cls-4{fill:#f5fff9;}</style></defs><g id="_レイヤー_1-2"><path class="cls-4" d="M12.55,1.6h71.28c6.04,0,10.95,4.91,10.95,10.95v25.93c0,6.04-4.91,10.95-10.95,10.95H12.55c-6.04,0-10.95-4.91-10.95-10.95V12.55C1.6,6.5,6.51,1.6,12.55,1.6Z"/><path class="cls-3" d="M83.83,3.2c5.15,0,9.35,4.19,9.35,9.35v25.93c0,5.15-4.19,9.35-9.35,9.35H12.55c-5.15,0-9.35-4.19-9.35-9.35V12.55C3.2,7.39,7.39,3.2,12.55,3.2h71.28M83.83,0H12.55C5.62,0,0,5.62,0,12.55v25.93c0,6.93,5.62,12.55,12.55,12.55h71.28c6.93,0,12.55-5.62,12.55-12.55V12.55c0-6.93-5.62-12.55-12.55-12.55h0Z"/><rect class="cls-2" x="69.91" y="7.11" width="7.81" height="27.89" transform="translate(36.51 -46.03) rotate(45)"/><polygon class="cls-1" points="57.05 32.3 62.57 37.82 55.02 39.85 57.05 32.3"/><line class="cls-2" x1="87.42" y1="7.45" x2="87.42" y2="7.45"/><line class="cls-2" x1="90.49" y1="18.02" x2="86.09" y2="22.42"/><line class="cls-2" x1="55.02" y1="39.85" x2="53.64" y2="41.24"/><path class="cls-3" d="M8.14,10.7h4.49c.42,0,.82-.37.8-.8s-.35-.8-.8-.8h-4.49c-.42,0-.82.37-.8.8s.35.8.8.8h0Z"/><path class="cls-3" d="M9.5,8.68v.74c0,.11.02.21.07.31.03.1.09.19.17.26.07.08.16.13.26.17.1.05.2.07.31.07l.21-.03c.14-.04.25-.11.35-.21l.13-.16c.07-.12.11-.26.11-.4v-.74c0-.11-.02-.21-.07-.31-.03-.1-.09-.19-.17-.26-.07-.08-.16-.13-.26-.17-.1-.05-.2-.07-.31-.07l-.21.03c-.14.04-.25.11-.35.21l-.13.16c-.07.12-.11.26-.11.4h0Z"/><path class="cls-3" d="M8.26,10.2v1.99c0,.42.37.82.8.8s.8-.35.8-.8v-1.99c0-.42-.37-.82-.8-.8s-.8.35-.8.8h0Z"/><path class="cls-3" d="M11.32,10.11v2.17c0,.42.37.82.8.8s.8-.35.8-.8v-2.17c0-.42-.37-.82-.8-.8s-.8.35-.8.8h0Z"/><path class="cls-3" d="M7.75,14.03h5.32c.42,0,.82-.37.8-.8s-.35-.8-.8-.8h-5.32c-.42,0-.82.37-.8.8s.35.8.8.8h0Z"/><path class="cls-3" d="M9.65,14.27v8.29c0,1.03,1.6,1.03,1.6,0v-8.29c0-1.03-1.6-1.03-1.6,0h0Z"/><path class="cls-3" d="M7.78,17.38h5.14c.42,0,.82-.37.8-.8s-.35-.8-.8-.8h-5.14c-.42,0-.82.37-.8.8s.35.8.8.8h0Z"/><path class="cls-3" d="M7.43,19.22l-.52,3.27c-.03.22-.04.42.08.62.1.17.29.32.48.37.38.09.91-.12.98-.56l.52-3.27c.03-.22.04-.42-.08-.62-.1-.17-.29-.32-.48-.37-.38-.09-.91.12-.98.56h0Z"/><path class="cls-3" d="M11.91,19.26c.04,1.26.26,2.53.65,3.73.13.4.56.7.98.56.4-.13.7-.56.56-.98-.18-.56-.33-1.13-.43-1.7-.03-.14-.05-.28-.07-.43-.03-.22.02.17,0-.05,0-.08-.02-.15-.03-.23-.03-.3-.05-.6-.06-.89-.01-.42-.36-.82-.8-.8s-.81.35-.8.8h0Z"/><path class="cls-3" d="M20.91,8.5v1.07c0,.21.09.42.23.57.07.08.16.13.26.17.1.05.2.07.31.07.21,0,.42-.08.57-.23s.23-.35.23-.57v-1.07c0-.21-.09-.42-.23-.57-.07-.08-.16-.13-.26-.17-.1-.05-.2-.07-.31-.07-.21,0-.42.08-.57.23s-.23.35-.23.57h0Z"/><path class="cls-3" d="M21.79,9.03c-1.43.02-2.88.07-4.2.71s-2.1,1.77-2.4,3.13c-.33,1.48-.16,3.05-.05,4.54.12,1.63.31,3.25.55,4.86.06.43.6.66.98.56.46-.12.62-.56.56-.98-.2-1.31-.35-2.63-.45-3.96s-.25-2.65-.14-3.95c.1-1.14.54-2.17,1.59-2.73s2.37-.57,3.56-.58c1.03-.01,1.03-1.61,0-1.6h0Z"/><path class="cls-3" d="M16.52,15.33c1.81-.18,3.66-.18,5.46.07.43.06.86-.1.98-.56.1-.37-.13-.93-.56-.98-1.96-.27-3.92-.33-5.89-.13-.43.04-.8.34-.8.8,0,.4.37.84.8.8h0Z"/><path class="cls-3" d="M19.71,15.01c-.1,2.32.01,4.65.32,6.95.06.43.33.8.8.8.39,0,.86-.37.8-.8-.31-2.3-.42-4.63-.32-6.95.02-.43-.38-.8-.8-.8-.45,0-.78.37-.8.8h0Z"/><path class="cls-3" d="M25.02,11.84h4.84c.42,0,.82-.37.8-.8s-.35-.8-.8-.8h-4.84c-.42,0-.82.37-.8.8s.35.8.8.8h0Z"/><path class="cls-3" d="M25.05,17.48h4.37c.42,0,.82-.37.8-.8s-.35-.8-.8-.8h-4.37c-.42,0-.82.37-.8.8s.35.8.8.8h0Z"/><path class="cls-3" d="M26.61,8.52c0,2.54,0,5.07,0,7.61,0,.62,0,1.25,0,1.87,0,.59.08,1.23,0,1.81-.12.88-1.55,1.65-2.29,2.02-.92.45-.11,1.83.81,1.38,1.01-.5,2.12-1.27,2.75-2.23.34-.52.32-1.05.32-1.64,0-.71,0-1.42,0-2.14,0-2.89,0-5.78,0-8.68,0-1.03-1.6-1.03-1.6,0h0Z"/><path class="cls-3" d="M26.87,21.29c.84.7,1.75,1.3,2.75,1.75.2.09.39.14.62.08.19-.05.39-.19.48-.37.19-.35.12-.91-.29-1.09-.79-.36-1.54-.81-2.23-1.34l.16.13c-.12-.09-.24-.19-.36-.29-.17-.14-.34-.23-.57-.23-.2,0-.43.09-.57.23-.27.3-.34.85,0,1.13h0Z"/><path class="cls-3" d="M32.27,8.96l-.1,10.04c0,1.03,1.59,1.03,1.6,0l.1-10.04c0-1.03-1.59-1.03-1.6,0h0Z"/><path class="cls-3" d="M33.43,9.78c1.15.2,2.26-.11,3.4,0,.87.08,1.4.52,1.47,1.41.09,1.14-.03,2.32-.11,3.45-.09,1.22-.23,2.43-.42,3.63-.07.43.11.86.56.98.38.1.92-.13.98-.56.22-1.41.39-2.82.49-4.24.09-1.28.25-2.66.02-3.93-.22-1.16-1.1-1.98-2.24-2.24-1.25-.29-2.49.16-3.73-.05-.43-.07-.86.11-.98.56-.11.39.13.91.56.98h0Z"/><path class="cls-3" d="M34.33,12.99l3.21.06c.42,0,.82-.37.8-.8s-.35-.79-.8-.8l-3.21-.06c-.42,0-.82.37-.8.8s.35.79.8.8h0Z"/><path class="cls-3" d="M34.3,16.26l3.18.04c.42,0,.82-.37.8-.8s-.35-.79-.8-.8l-3.18-.04c-.42,0-.82.37-.8.8s.35.79.8.8h0Z"/><path class="cls-3" d="M34.07,19.71l3.45.03c.42,0,.82-.37.8-.8s-.35-.8-.8-.8l-3.45-.03c-.42,0-.82.37-.8.8s.35.8.8.8h0Z"/><path class="cls-3" d="M33.7,19.93c-.05.65-.07,1.31-.16,1.96l.03-.21c-.01.08-.03.17-.06.25l.08-.19s-.05.12-.06.11c0,0,.15-.16.04-.06-.07.07-.05-.02.06-.04-.03,0-.07.04-.1.05l.19-.08c-.08.04-.17.06-.26.07l.21-.03c-.11.01-.21,0-.32,0l.21.03c-.15-.02-.29-.06-.43-.09-.4-.1-.89.13-.98.56s.13.87.56.98.89.2,1.33.07c.51-.15.89-.52,1.04-1.03.11-.38.1-.82.13-1.21l.09-1.13c.03-.42-.39-.82-.8-.8-.46.02-.77.35-.8.8h0Z"/><path class="cls-3" d="M36.27,20.13l.02,1.25c0,.46-.04.98.2,1.39.16.27.44.49.75.55.22.05.43.05.65.03.42-.04.83-.08,1.25-.13.22-.02.41-.07.57-.23.14-.14.24-.37.23-.57s-.08-.42-.23-.57c-.15-.14-.36-.26-.57-.23-.29.03-.58.06-.87.09-.25.03-.51.08-.77.05l.21.03s-.09-.02-.13-.03l.19.08s-.06-.03-.09-.05l.16.13s-.05-.04-.07-.07l.13.16s-.04-.06-.05-.09l.08.19c-.03-.07-.04-.13-.05-.2l.03.21c-.03-.31-.02-.64-.02-.96v-1.03c-.02-.42-.38-.82-.81-.8s-.81.35-.8.8h0Z"/><path class="cls-3" d="M9.59,28.62c.04,1.7-.11,3.4-.5,5.06-.13.54-.24,1.06-.65,1.37-.45.34-1.01.49-1.55.66-.98.31-.56,1.86.43,1.54.66-.21,1.36-.42,1.93-.82.67-.46,1.08-1.1,1.28-1.88.5-1.93.71-3.94.66-5.93-.03-1.03-1.63-1.03-1.6,0h0Z"/><path class="cls-3" d="M8.18,36.2c.04,1.92.1,3.84.14,5.77,0,.43.36.8.8.8s.81-.37.8-.8c-.04-1.92-.1-3.84-.14-5.77,0-.43-.36-.8-.8-.8s-.81.37-.8.8h0Z"/><path class="cls-3" d="M12.9,28.91l.08,6.44c.01,1.03,1.61,1.03,1.6,0l-.08-6.44c-.01-1.03-1.61-1.03-1.6,0h0Z"/><path class="cls-3" d="M14.3,31.22c2.38-.04,4.77-.07,7.15-.11,1.03-.02,1.03-1.62,0-1.6-2.38.04-4.77.07-7.15.11-1.03.02-1.03,1.62,0,1.6h0Z"/><path class="cls-3" d="M18.3,33.94l3.91.04c.42,0,.82-.37.8-.8s-.35-.8-.8-.8l-3.91-.04c-.42,0-.82.37-.8.8s.35.8.8.8h0Z"/><path class="cls-3" d="M18.35,37.35l3.29.2c.42.03.82-.39.8-.8-.02-.46-.35-.77-.8-.8l-3.29-.2c-.42-.03-.82.39-.8.8.02.46.35.77.8.8h0Z"/><path class="cls-3" d="M16.35,31.29v10.68c0,1.03,1.6,1.03,1.6,0v-10.68c0-1.03-1.6-1.03-1.6,0h0Z"/><path class="cls-3" d="M26.53,31.22h12.63c1.03,0,1.03-1.6,0-1.6h-12.63c-1.03,0-1.03,1.6,0,1.6h0Z"/><path class="cls-3" d="M25.76,30.56c.22,3.69-.32,7.34-1.59,10.81-.35.97,1.19,1.39,1.54.43,1.31-3.58,1.87-7.43,1.65-11.24-.06-1.02-1.66-1.03-1.6,0h0Z"/><path class="cls-3" d="M27.6,34.78c.42-.08.79-.15,1.22-.15.27,0,.53.05.75.17.12.07.19.1.27.21-.03-.04-.01-.02.04.05.03.05.06.09.08.14.07.13,0-.05.04.11.02.08.04.16.06.24.05.23,0-.12.01.12,0,.18.01.37,0,.55s-.03.37-.05.55c-.01.09-.02.18-.03.27-.02.13,0,.02-.02.16-.07.38-.13.67-.29.94-.02.03-.13.19-.1.14.03-.03-.12.12-.15.15.1-.08-.07.04-.09.05-.08.04-.09.05-.04.02.05-.02.03-.02-.05,0-.24.02.16,0-.08,0-.2,0,.1,0-.08,0-.09-.03-.09-.03-.01,0l-.06-.03c-.08-.05-.08-.05-.01,0-.03-.03-.07-.07-.09-.11-.27-.34-.85-.28-1.13,0-.34.34-.27.79,0,1.13.55.71,1.63.78,2.38.37s1.17-1.24,1.33-2.05c.3-1.53.47-3.64-1.22-4.44-1-.47-2.04-.33-3.09-.13-.42.08-.67.59-.56.98.12.44.56.64.98.56h0Z"/><path class="cls-3" d="M32.89,27.85c-.39,3.77-.71,7.8,1.21,11.23.77,1.37,2.03,2.96,3.71,3.14,1.44.15,3.04-1.26,2.42-2.77-.39-.94-1.94-.53-1.54.43.17.4-.17.74-.58.76-.59.03-1.14-.47-1.52-.86-.89-.92-1.49-2.11-1.86-3.33-.85-2.79-.52-5.75-.23-8.6.11-1.02-1.5-1.02-1.6,0h0Z"/><path class="cls-3" d="M37,33.51c-.1,3.32-2.28,6.53-5.38,7.78-.4.16-.68.53-.56.98.1.38.58.72.98.56,3.78-1.53,6.42-5.23,6.55-9.32.03-1.03-1.57-1.03-1.6,0h0Z"/><path class="cls-3" d="M37.31,28.75c1.03,0,1.03-1.6,0-1.6s-1.03,1.6,0,1.6h0Z"/></g></svg>