<?xml version="1.0" encoding="UTF-8"?><svg id="_レイヤー_2" xmlns="http://www.w3.org/2000/svg" viewBox="0 0 45.35 45.35"><defs><style>.cls-1{fill:none;stroke:#64bc8f;stroke-linecap:round;stroke-linejoin:round;stroke-width:3.2px;}.cls-2{fill:#54a379;}.cls-2,.cls-3{stroke-width:0px;}.cls-3{fill:#f5fff9;}</style></defs><g id="_レイヤー_1-2"><rect class="cls-3" x="1.6" y="1.6" width="42.15" height="42.15" rx="6.9" ry="6.9"/><path class="cls-2" d="M36.85,3.2c2.92,0,5.3,2.38,5.3,5.3v28.35c0,2.92-2.38,5.3-5.3,5.3H8.5c-2.92,0-5.3-2.38-5.3-5.3V8.5c0-2.92,2.38-5.3,5.3-5.3h28.35M36.85,0H8.5C3.81,0,0,3.81,0,8.5v28.35c0,4.7,3.81,8.5,8.5,8.5h28.35c4.7,0,8.5-3.81,8.5-8.5V8.5c0-4.7-3.81-8.5-8.5-8.5h0Z"/><path class="cls-1" d="M40.46,31.79c-.12-1.01-2.42-.14-4.69-2.88-.99-1.2-1.81-2.78-2.27-4.46v-5.39s0,0,0,0h0c0-5.32-3.59-9.79-8.47-11.15.18-.42.29-.87.29-1.36,0-1.88-1.52-3.4-3.4-3.4s-3.4,1.52-3.4,3.4c0,.48.1.94.29,1.36-4.88,1.36-8.47,5.83-8.47,11.15-.13,4.88-1.24,8.47-2.18,9.72-.69.92-1.09,1.3-1.55,1.63-.97.7-1.64.67-1.7,1.38-.1,1.25,4.8,3.35,11.37,4.26-.01.15-.05.3-.05.46,0,3.15,2.55,5.7,5.7,5.7s5.7-2.55,5.7-5.7c0-.1-.02-.19-.03-.28,7.41-.83,13.02-3.29,12.88-4.44Z"/></g></svg>