<?xml version="1.0" encoding="UTF-8"?><svg id="_レイヤー_2" xmlns="http://www.w3.org/2000/svg" viewBox="0 0 45.35 45.35"><defs><style>.cls-1{fill:none;stroke:#64bc8f;stroke-linecap:round;stroke-linejoin:round;stroke-width:3.2px;}.cls-2{fill:#54a379;}.cls-2,.cls-3{stroke-width:0px;}.cls-3{fill:#f5fff9;}</style></defs><g id="_レイヤー_1-2"><rect class="cls-3" x="1.6" y="1.6" width="42.15" height="42.15" rx="6.9" ry="6.9"/><path class="cls-2" d="M36.85,3.2c2.92,0,5.3,2.38,5.3,5.3v28.35c0,2.92-2.38,5.3-5.3,5.3H8.5c-2.92,0-5.3-2.38-5.3-5.3V8.5c0-2.92,2.38-5.3,5.3-5.3h28.35M36.85,0H8.5C3.81,0,0,3.81,0,8.5v28.35c0,4.7,3.81,8.5,8.5,8.5h28.35c4.7,0,8.5-3.81,8.5-8.5V8.5c0-4.7-3.81-8.5-8.5-8.5h0Z"/><path class="cls-1" d="M36.93,29.77l4.13,1.99c1.33-2.77,2.01-5.75,2.01-8.84v-.27s-4.58.13-4.58.13c-.02-2.47-.62-4.8-1.65-6.88l4.11-2.04c-1.35-2.72-3.33-5.14-5.72-7.02l-2.83,3.61c-1.84-1.44-3.99-2.48-6.35-3l.97-4.47c-2.96-.65-6.11-.62-9.06.08l1.05,4.46c-2.35.55-4.5,1.62-6.31,3.09l-2.88-3.56c-2.36,1.92-4.3,4.38-5.6,7.12l4.15,1.97c-.97,2.05-1.54,4.34-1.54,6.77,0,.03,0,.06,0,.09l-4.58.03c.02,3.09.71,6.06,2.06,8.82l4.12-2.01c1.05,2.14,2.55,4.01,4.4,5.47l-2.84,3.59c2.39,1.89,5.22,3.24,8.18,3.9l1-4.47c1.12.25,2.28.39,3.47.39s2.41-.15,3.56-.42l1.03,4.47c2.96-.68,5.78-2.05,8.16-3.96l-2.86-3.57c1.84-1.47,3.33-3.35,4.37-5.5ZM15.99,22.92c0-3.69,3-6.69,6.69-6.69s6.69,3,6.69,6.69-3,6.69-6.69,6.69-6.69-3-6.69-6.69Z"/></g></svg>