<?xml version="1.0" encoding="UTF-8"?><svg id="_レイヤー_2" xmlns="http://www.w3.org/2000/svg" viewBox="0 0 85.67 45.35"><defs><style>.cls-1{fill:none;stroke:#64bc8f;stroke-linejoin:bevel;stroke-width:3.2px;}.cls-2{fill:#54a379;}.cls-2,.cls-3{stroke-width:0px;}.cls-3{fill:#f5fff9;}</style></defs><g id="_レイヤー_1-2"><rect class="cls-3" x="1.6" y="1.6" width="82.47" height="42.16" rx="10.95" ry="10.95"/><path class="cls-2" d="M73.12,3.2c5.15,0,9.35,4.19,9.35,9.35v20.26c0,5.15-4.19,9.35-9.35,9.35H12.55c-5.15,0-9.35-4.19-9.35-9.35V12.55C3.2,7.39,7.39,3.2,12.55,3.2h60.58M73.12,0H12.55C5.62,0,0,5.62,0,12.55v20.26c0,6.93,5.62,12.55,12.55,12.55h60.58c6.93,0,12.55-5.62,12.55-12.55V12.55c0-6.93-5.62-12.55-12.55-12.55h0Z"/><path class="cls-1" d="M63.61,21.99h0c7.66,0,13.88,6.22,13.88,13.88v4.92c0,.79-.64,1.43-1.43,1.43h-24.92c-.79,0-1.43-.64-1.43-1.43v-4.9c0-7.67,6.23-13.9,13.9-13.9Z"/><circle class="cls-1" cx="63.6" cy="12.38" r="9.24"/><path class="cls-2" d="M10.14,9.32h3.99c.42,0,.82-.37.8-.8s-.35-.8-.8-.8h-3.99c-.42,0-.82.37-.8.8s.35.8.8.8h0Z"/><path class="cls-2" d="M11.26,7.44v.66c0,.11.02.21.07.31.03.1.09.19.17.26.07.08.16.13.26.17.1.05.2.07.31.07l.21-.03c.14-.04.25-.11.35-.21l.13-.16c.07-.12.11-.26.11-.4v-.66c0-.11-.02-.21-.07-.31-.03-.1-.09-.19-.17-.26-.07-.08-.16-.13-.26-.17-.1-.05-.2-.07-.31-.07l-.21.03c-.14.04-.25.11-.35.21l-.13.16c-.07.12-.11.26-.11.4h0Z"/><path class="cls-2" d="M10.16,8.78v1.77c0,.21.09.42.23.57s.37.24.57.23.42-.08.57-.23.23-.35.23-.57v-1.77c0-.21-.09-.42-.23-.57s-.37-.24-.57-.23-.42.08-.57.23-.23.35-.23.57h0Z"/><path class="cls-2" d="M12.88,8.7v1.93c0,.21.09.42.23.57s.37.24.57.23c.43-.02.8-.35.8-.8v-1.93c0-.21-.09-.42-.23-.57s-.37-.24-.57-.23c-.43.02-.8.35-.8.8h0Z"/><path class="cls-2" d="M9.79,12.28h4.73c.42,0,.82-.37.8-.8s-.35-.8-.8-.8h-4.73c-.42,0-.82.37-.8.8s.35.8.8.8h0Z"/><path class="cls-2" d="M11.4,12.4v7.37c0,1.03,1.6,1.03,1.6,0v-7.37c0-1.03-1.6-1.03-1.6,0h0Z"/><path class="cls-2" d="M9.82,15.26h4.57c.42,0,.82-.37.8-.8s-.35-.8-.8-.8h-4.57c-.42,0-.82.37-.8.8s.35.8.8.8h0Z"/><path class="cls-2" d="M9.42,16.78l-.46,2.9c-.03.22-.04.42.08.62.1.17.29.32.48.37.38.09.91-.12.98-.56l.46-2.9c.03-.22.04-.42-.08-.62-.1-.17-.29-.32-.48-.37-.38-.09-.91.12-.98.56h0Z"/><path class="cls-2" d="M13.4,16.84c.04,1.13.23,2.26.58,3.34.13.4.56.7.98.56.4-.13.7-.56.56-.98-.16-.49-.29-1-.39-1.51-.02-.13-.04-.25-.06-.38-.03-.2.02.18,0-.02,0-.07-.02-.14-.02-.21-.03-.26-.04-.53-.05-.79-.01-.42-.36-.82-.8-.8s-.81.35-.8.8h0Z"/><path class="cls-2" d="M21.41,7.28v.95c0,.21.09.42.23.57.07.08.16.13.26.17.1.05.2.07.31.07.21,0,.42-.08.57-.23s.23-.35.23-.57v-.95c0-.21-.09-.42-.23-.57-.07-.08-.16-.13-.26-.17-.1-.05-.2-.07-.31-.07-.21,0-.42.08-.57.23s-.23.35-.23.57h0Z"/><path class="cls-2" d="M22.28,7.66c-1.29.01-2.59.07-3.77.64s-1.9,1.61-2.17,2.84c-.29,1.32-.15,2.72-.05,4.06.11,1.45.28,2.9.49,4.35.06.43.6.66.98.56.46-.12.62-.56.56-.98-.17-1.16-.31-2.33-.4-3.5s-.22-2.35-.12-3.51c.08-.98.47-1.87,1.36-2.35.94-.51,2.08-.49,3.12-.5s1.03-1.61,0-1.6h0Z"/><path class="cls-2" d="M17.59,13.43c1.59-.16,3.3-.15,4.83.06.41.06.88-.1.98-.56.09-.38-.12-.92-.56-.98-1.75-.24-3.5-.29-5.26-.12-.42.04-.82.34-.8.8.02.4.35.85.8.8h0Z"/><path class="cls-2" d="M20.34,13.06c-.09,2.07.01,4.13.29,6.18.06.43.33.8.8.8.39,0,.86-.37.8-.8-.27-2.05-.37-4.12-.29-6.18.02-.43-.38-.8-.8-.8-.45,0-.78.37-.8.8h0Z"/><path class="cls-2" d="M25.15,10.34c1.43,0,2.87,0,4.3,0,.42,0,.82-.37.8-.8s-.35-.8-.8-.8h-4.3c-.42,0-.82.37-.8.8s.35.8.8.8h0Z"/><path class="cls-2" d="M25.18,15.35h3.89c.42,0,.82-.37.8-.8s-.35-.8-.8-.8h-3.89c-.42,0-.82.37-.8.8s.35.8.8.8h0Z"/><path class="cls-2" d="M26.47,7.3c0,2.25,0,4.51,0,6.76,0,.55,0,1.11,0,1.66,0,.51.1,1.11,0,1.61-.14.75-1.35,1.4-1.99,1.71-.92.45-.11,1.83.81,1.38s1.91-1.15,2.48-2.02c.31-.47.3-.96.3-1.5,0-.63,0-1.27,0-1.9,0-2.57,0-5.14,0-7.71,0-1.03-1.6-1.03-1.6,0h0Z"/><path class="cls-2" d="M26.73,18.71c.75.63,1.57,1.16,2.46,1.57.2.09.39.14.62.08.19-.05.39-.19.48-.37.1-.19.15-.41.08-.62-.06-.19-.18-.39-.37-.48-.7-.32-1.37-.72-1.98-1.19l.16.13c-.11-.08-.21-.17-.32-.25-.17-.14-.34-.23-.57-.23-.2,0-.43.09-.57.23s-.24.35-.23.57c0,.2.07.43.23.57h0Z"/><path class="cls-2" d="M31.5,7.68l-.09,8.93c0,1.03,1.59,1.03,1.6,0l.09-8.93c0-1.03-1.59-1.03-1.6,0h0Z"/><path class="cls-2" d="M32.6,8.5c1.03.18,2.02-.1,3.05,0,.73.07,1.16.42,1.22,1.17.08,1.01-.03,2.06-.1,3.07-.08,1.07-.2,2.14-.37,3.21-.07.43.11.86.56.98.38.1.92-.13.98-.56.2-1.26.35-2.52.44-3.79.08-1.14.22-2.38.01-3.52-.2-1.06-1.02-1.81-2.05-2.05-1.11-.25-2.21.15-3.31-.05-.43-.07-.86.11-.98.56-.11.39.13.91.56.98h0Z"/><path class="cls-2" d="M33.42,11.35l2.86.05c.42,0,.82-.37.8-.8s-.35-.79-.8-.8l-2.86-.05c-.42,0-.82.37-.8.8s.35.79.8.8h0Z"/><path class="cls-2" d="M33.39,14.27l2.83.04c.42,0,.82-.37.8-.8s-.35-.79-.8-.8l-2.83-.04c-.42,0-.82.37-.8.8s.35.79.8.8h0Z"/><path class="cls-2" d="M33.19,17.33l3.06.02c.42,0,.82-.37.8-.8s-.35-.8-.8-.8l-3.06-.02c-.42,0-.82.37-.8.8s.35.8.8.8h0Z"/><path class="cls-2" d="M32.77,17.43c-.04.58-.06,1.17-.14,1.74l.03-.21c-.01.08-.03.15-.05.22l.08-.19s-.04.09-.07.13l.13-.16s-.07.08-.12.12l.16-.13s-.08.05-.12.07l.19-.08c-.08.03-.15.05-.23.06l.21-.03c-.1,0-.19,0-.29,0l.21.03c-.13-.02-.26-.05-.39-.08-.4-.1-.89.13-.98.56s.13.87.56.98c.4.1.82.18,1.23.06.48-.14.85-.5.99-.98.1-.35.09-.74.12-1.1l.08-1.01c.01-.2-.1-.43-.23-.57s-.37-.24-.57-.23c-.46.02-.77.35-.8.8h0Z"/><path class="cls-2" d="M35.06,17.61v1.11c.02.43-.02.9.21,1.28.16.26.42.47.72.53.21.05.4.05.6.03.37-.04.74-.07,1.11-.11.22-.02.41-.07.57-.23.14-.14.24-.37.23-.57s-.08-.42-.23-.57c-.15-.14-.36-.26-.57-.23-.26.03-.52.05-.77.08-.22.02-.46.07-.68.04l.21.03s-.08-.02-.12-.03l.19.08s-.05-.03-.08-.04l.16.13s-.04-.04-.06-.06l.13.16s-.03-.05-.05-.08l.08.19c-.02-.06-.04-.12-.05-.18l.03.21c-.03-.28-.02-.57-.02-.85v-.92c-.02-.42-.38-.82-.81-.8s-.81.35-.8.8h0Z"/><path class="cls-2" d="M12.41,23.78l2.59-.03h1.22c.23-.02.45-.02.68-.02.09,0,.18,0,.27,0,.19-.01.01.01-.02,0l-.29-.29v-.03c-.01-.14-.01-.28-.01-.43-.02.12-.41.45-.54.57-.23.23-.47.45-.71.66-.49.43-1.01.84-1.55,1.21-1.09.75-2.26,1.39-3.49,1.88-.4.16-.68.53-.56.98.1.38.58.72.98.56,2.33-.93,4.47-2.27,6.29-4.01.45-.43,1.14-.97,1.14-1.65,0-.45-.3-.83-.72-.97-.3-.11-.63-.08-.94-.08l-4.36.05c-1.03.01-1.03,1.61,0,1.6h0Z"/><path class="cls-2" d="M11.17,25.27l1.11,1.11c.15.15.36.23.57.23.11,0,.21-.02.31-.07.1-.03.19-.09.26-.17.14-.15.24-.35.23-.57s-.08-.41-.23-.57l-1.11-1.11c-.15-.15-.36-.23-.57-.23-.11,0-.21.02-.31.07-.1.03-.19.09-.26.17-.14.15-.24.35-.23.57s.08.41.23.57h0Z"/><path class="cls-2" d="M20.76,22.46l-1.3,1.59c-.08.07-.13.16-.17.26-.05.1-.07.2-.07.31,0,.2.09.43.23.57s.35.24.57.23c.2,0,.43-.07.57-.23l1.3-1.59c.08-.07.13-.16.17-.26.05-.1.07-.2.07-.31,0-.2-.09-.43-.23-.57s-.35-.24-.57-.23c-.2,0-.43.07-.57.23h0Z"/><path class="cls-2" d="M23.39,24.31l-1.61,2.07c-.14.17-.23.33-.23.57,0,.2.09.43.23.57s.35.24.57.23c.2,0,.44-.07.57-.23l1.61-2.07c.14-.17.23-.33.23-.57,0-.2-.09-.43-.23-.57s-.35-.24-.57-.23c-.2,0-.44.07-.57.23h0Z"/><path class="cls-2" d="M18.18,23.86c1.09,2.48,3.51,4.16,6.17,4.51.43.06.8-.41.8-.8,0-.48-.37-.74-.8-.8.15.02-.1-.02-.11-.02-.07-.01-.13-.02-.2-.04-.14-.03-.29-.06-.43-.1-.26-.07-.51-.16-.76-.26.13.05-.1-.05-.1-.05-.06-.03-.12-.06-.18-.09-.13-.07-.26-.14-.39-.21-.24-.14-.48-.3-.7-.47-.12-.09.13.12-.06-.05-.05-.04-.1-.09-.15-.13-.11-.1-.22-.2-.33-.3-.2-.2-.39-.41-.57-.62-.03-.04-.03-.04,0,0l-.05-.06c-.05-.06-.09-.13-.14-.2-.08-.11-.15-.22-.22-.34-.15-.25-.29-.52-.4-.79-.17-.4-.75-.49-1.09-.29-.41.24-.46.7-.29,1.09h0Z"/><path class="cls-2" d="M16.03,28.25l4.25.04c.42,0,.82-.37.8-.8s-.35-.8-.8-.8l-4.25-.04c-.42,0-.82.37-.8.8s.35.8.8.8h0Z"/><path class="cls-2" d="M18.13,31.49c-.77-.17-1.51-.07-2.29-.03-.47.03-1.19.07-1.49-.4-.58-.91,2.15-.73,2.5-.73.78,0,1.55,0,2.33,0,.43,0,1.01-.07,1.39.12.11.05.16.13.16.19,0,.17-.15.36-.28.46-.44.33-1.16.24-1.67.22-1.03-.04-1.03,1.56,0,1.6.77.03,1.54.02,2.25-.32.6-.28,1.1-.87,1.24-1.53.16-.73-.12-1.46-.73-1.89-.52-.36-1.18-.43-1.8-.44-.81-.01-1.62,0-2.43,0s-1.59-.05-2.37.04-1.51.38-1.96,1.04c-.42.62-.41,1.43-.02,2.06.46.75,1.26,1.09,2.1,1.18s1.77-.21,2.64-.01c1,.23,1.43-1.32.43-1.54h0Z"/><path class="cls-2" d="M14.23,34.48l.43.97c.05.09.12.17.21.22.08.07.17.12.27.14.11.03.21.04.32.01.11,0,.21-.04.3-.09.17-.11.32-.27.37-.48l.03-.21c0-.14-.04-.28-.11-.4l-.43-.97c-.05-.09-.12-.17-.21-.22-.08-.07-.17-.12-.27-.14-.11-.03-.21-.04-.32-.01-.11,0-.21.04-.3.09-.17.11-.32.27-.37.48l-.03.21c0,.14.04.28.11.4h0Z"/><path class="cls-2" d="M19.99,33.58l-.58.77c-.06.09-.09.19-.09.3-.02.11-.02.21.01.32.02.1.07.19.14.27.06.09.13.16.22.21l.19.08c.14.04.28.04.43,0l.19-.08c.12-.07.22-.17.29-.29l.58-.77c.06-.09.09-.19.09-.3.02-.11.02-.21-.01-.32-.02-.1-.07-.19-.14-.27-.06-.09-.13-.16-.22-.21l-.19-.08c-.14-.04-.28-.04-.43,0l-.19.08c-.12.07-.22.17-.29.29h0Z"/><path class="cls-2" d="M10.96,36.67h13.05c1.03,0,1.03-1.6,0-1.6h-13.05c-1.03,0-1.03,1.6,0,1.6h0Z"/><path class="cls-2" d="M27.8,25.43c0-.06,0-.12,0-.19.01-.2-.04.17,0-.03.02-.11.05-.22.08-.33.02-.05.03-.1.05-.15.07-.19-.08.14.02-.04.05-.1.1-.2.17-.3.03-.04.06-.09.09-.13.1-.15-.08.09.03-.04.08-.09.17-.19.26-.27.04-.04.08-.07.12-.1.07-.06-.11.07.01,0,.11-.07.22-.13.33-.19.13-.07-.04,0,.04-.02.07-.02.14-.04.21-.06s.15-.02.03-.01c.07,0,.14,0,.21,0-.14,0,0,0,.06.02.02,0,.18.08.09.03s.09.06.11.07c.06.04.11.08.02.01.1.09.19.18.28.28-.07-.09-.01-.01.02.04s.07.1.1.16c.15.26.27.53.38.8.17.39.76.5,1.09.29.4-.26.46-.68.29-1.09-.3-.7-.66-1.36-1.3-1.81-.7-.49-1.55-.47-2.31-.13-1.25.55-2.06,1.87-2.09,3.22-.01.42.38.82.8.8s.79-.35.8-.8h0Z"/><path class="cls-2" d="M28.55,27.25l1.98.05c.42.01.82-.38.8-.8s-.35-.79-.8-.8l-1.98-.05c-.42-.01-.82.38-.8.8s.35.79.8.8h0Z"/><path class="cls-2" d="M26.81,30h4.74c.42,0,.82-.37.8-.8s-.35-.8-.8-.8h-4.74c-.42,0-.82.37-.8.8s.35.8.8.8h0Z"/><path class="cls-2" d="M26.76,36.44c1.75-.13,3.45-.71,4.89-1.73.34-.24.54-.71.29-1.09-.22-.34-.73-.55-1.09-.29-.31.22-.64.42-.98.61-.18.1-.37.18-.55.27-.09.04-.09.04-.02.01-.05.02-.09.04-.14.06-.08.03-.17.06-.25.09-.36.13-.73.24-1.1.32-.19.04-.38.07-.56.1-.1.01-.1.01-.02,0-.05,0-.1.01-.15.02-.1.01-.2.02-.31.03-.42.03-.82.35-.8.8.02.41.35.83.8.8h0Z"/><path class="cls-2" d="M26.06,31.79l1.06,1.6c.12.17.27.31.48.37.19.05.45.03.62-.08s.32-.27.37-.48.04-.44-.08-.62l-1.06-1.6c-.12-.17-.27-.31-.48-.37-.19-.05-.45-.03-.62.08s-.32.27-.37.48-.04.44.08.62h0Z"/><path class="cls-2" d="M31.13,30.89l-.54.96c-.1.18-.14.41-.08.62.02.1.07.19.14.27.06.09.13.16.22.21.19.1.41.15.62.08s.37-.18.48-.37l.54-.96c.1-.18.14-.41.08-.62-.02-.1-.07-.19-.14-.27-.06-.09-.13-.16-.22-.21-.19-.1-.41-.15-.62-.08s-.37.18-.48.37h0Z"/><path class="cls-2" d="M28.77,26.97v7.73c0,1.03,1.6,1.03,1.6,0v-7.73c0-1.03-1.6-1.03-1.6,0h0Z"/><path class="cls-2" d="M33.72,23.69c1.25-.16,2.63-.2,3.83.12.07.02.14.04.2.06.12.04.01,0,.08.04.06.03.12.06.18.11-.08-.06.03.04.05.07.08.09-.06-.13.04.06.06.12,0-.02.03.06.02.06.04.13.06.19.04.14,0-.02.01.07.04.52-.19,1.02-.43,1.53-.19.39-.11.86.29,1.09.35.2.91.1,1.09-.29.34-.72.7-1.49.65-2.3s-.45-1.63-1.23-2.01c-.73-.35-1.6-.42-2.4-.48s-1.63-.03-2.44.08c-.41.05-.82.33-.8.8.02.39.36.86.8.8h0Z"/><path class="cls-2" d="M34.25,26.08l3.67.03c.42,0,.82-.37.8-.8s-.35-.8-.8-.8l-3.67-.03c-.42,0-.82.37-.8.8s.35.8.8.8h0Z"/><path class="cls-2" d="M32.71,28.64h7.59c1.03,0,1.03-1.6,0-1.6h-7.59c-1.03,0-1.03,1.6,0,1.6h0Z"/><path class="cls-2" d="M35.68,28.42l-.02,4.79c0,.62.08,1.35-.19,1.92-.14.29-.49.64-.75.37-.72-.74-1.85.39-1.13,1.13.62.65,1.64.72,2.4.26.82-.5,1.15-1.44,1.24-2.34.1-.98.04-1.98.04-2.96v-3.17c.02-1.03-1.58-1.03-1.59,0h0Z"/><path class="cls-2" d="M33.16,35.31c1.38-.6,2.62-1.55,3.56-2.73.14-.17.23-.34.23-.57,0-.2-.09-.43-.23-.57-.29-.27-.85-.35-1.13,0-.22.28-.46.54-.71.79-.13.13-.26.25-.39.36-.06.06-.13.11-.19.16-.04.03-.07.06-.11.09-.05.04-.15.08,0,0-.14.08-.28.2-.41.29-.15.1-.3.19-.45.29-.31.19-.64.35-.98.5-.17.07-.32.31-.37.48-.05.19-.03.45.08.62s.27.32.48.37c.22.05.41,0,.62-.08h0Z"/><path class="cls-2" d="M32.86,29.87l.81,1.17c.05.09.12.17.21.22.08.07.17.12.27.14.11.03.21.04.32.01.11,0,.21-.04.3-.09.17-.11.32-.27.37-.48s.04-.44-.08-.62l-.81-1.17c-.05-.09-.12-.17-.21-.22-.08-.07-.17-.12-.27-.14-.11-.03-.21-.04-.32-.01-.11,0-.21.04-.3.09-.17.11-.32.27-.37.48s-.04.44.08.62h0Z"/><path class="cls-2" d="M39.38,29.71v.03c.01-.06.04-.13.07-.19-.18.43-.42.83-.7,1.2l.13-.16c-.27.35-.58.67-.93.94-.15.12-.23.38-.23.57,0,.2.09.43.23.57s.35.24.57.23l.21-.03c.14-.04.25-.11.35-.21.42-.33.76-.72,1.08-1.15s.56-.89.76-1.38c.07-.18.01-.46-.08-.62-.1-.17-.29-.32-.48-.37-.2-.05-.43-.04-.62.08l-.16.13c-.1.1-.17.22-.21.35h0Z"/><path class="cls-2" d="M36.2,30.1c.64,2.16,2.17,4.04,4.17,5.07.37.19.89.11,1.09-.29.19-.37.11-.89-.29-1.09-.23-.12-.45-.24-.66-.38-.1-.06-.19-.13-.29-.2-.05-.03-.09-.07-.14-.1-.07-.05.08.07-.03-.02-.39-.32-.74-.66-1.07-1.05-.04-.04-.07-.09-.11-.13-.09-.12.03.04-.02-.03-.07-.1-.15-.21-.22-.31-.14-.2-.26-.41-.38-.63-.06-.11-.12-.23-.17-.34-.02-.04-.04-.08-.06-.13,0-.02-.1-.23-.03-.06-.09-.24-.18-.48-.25-.72-.12-.4-.57-.69-.98-.56s-.69.55-.56.98h0Z"/></g></svg>