<?xml version="1.0" encoding="UTF-8"?><svg id="_レイヤー_2" xmlns="http://www.w3.org/2000/svg" viewBox="0 0 45.35 45.35"><defs><style>.cls-1{fill:none;stroke:#64bc8f;stroke-linejoin:bevel;stroke-width:3.2px;}.cls-2{fill:#54a379;}.cls-2,.cls-3{stroke-width:0px;}.cls-3{fill:#f5fff9;}</style></defs><g id="_レイヤー_1-2"><rect class="cls-3" x="1.6" y="1.6" width="42.15" height="42.15" rx="6.9" ry="6.9"/><path class="cls-2" d="M36.85,3.2c2.92,0,5.3,2.38,5.3,5.3v28.35c0,2.92-2.38,5.3-5.3,5.3H8.5c-2.92,0-5.3-2.38-5.3-5.3V8.5c0-2.92,2.38-5.3,5.3-5.3h28.35M36.85,0H8.5C3.81,0,0,3.81,0,8.5v28.35c0,4.7,3.81,8.5,8.5,8.5h28.35c4.7,0,8.5-3.81,8.5-8.5V8.5c0-4.7-3.81-8.5-8.5-8.5h0Z"/><path class="cls-1" d="M22.69,21.99h0c7.66,0,13.88,6.22,13.88,13.88v4.92c0,.79-.64,1.43-1.43,1.43H10.22c-.79,0-1.43-.64-1.43-1.43v-4.9c0-7.67,6.23-13.9,13.9-13.9Z"/><circle class="cls-1" cx="22.68" cy="12.38" r="9.24"/></g></svg>